<svg width="252" height="80" fill="none" xmlns="http://www.w3.org/2000/svg"><path fill-rule="evenodd" clip-rule="evenodd" d="M142.725 45.365v-9.152h5.886v1.232h-4.418v2.662h4.012v1.233h-4.012v4.025h-1.468zM154.802 44.211h-.065c-.288.708-.839 1.311-1.953 1.311-1.364 0-2.282-.93-2.282-2.57V38.6h1.429v4.143c0 1.075.485 1.612 1.403 1.612.735 0 1.468-.38 1.468-1.167V38.6h1.43v6.765h-1.43v-1.154zM158.438 45.364V38.6h1.429v1.154h.065c.288-.708.84-1.312 1.954-1.312 1.363 0 2.281.932 2.281 2.57v4.353h-1.429v-4.143c0-1.075-.485-1.613-1.403-1.613-.734 0-1.468.38-1.468 1.168v4.588h-1.429zM170.608 43.11v-2.256c0-.826-.708-1.245-1.534-1.245-1.075 0-1.692.72-1.692 1.822v1.102c0 1.101.617 1.822 1.692 1.822.826 0 1.534-.42 1.534-1.245zm0 1.1h-.078c-.394.814-1.049 1.312-2.046 1.312-1.586 0-2.609-1.22-2.609-3.54 0-2.32 1.023-3.54 2.609-3.54.997 0 1.652.498 2.046 1.31h.078v-4.09h1.429v9.703h-1.429V44.21zM178.124 43.346v-.984h-1.272c-1.048 0-1.547.328-1.547.93v.263c0 .603.472.918 1.233.918.917 0 1.586-.459 1.586-1.127zm1.403 2.019c-.812 0-1.219-.46-1.298-1.141h-.065c-.263.813-.971 1.298-2.032 1.298-1.377 0-2.269-.774-2.269-2.046 0-1.31.957-2.019 2.963-2.019h1.298v-.524c0-.905-.485-1.377-1.455-1.377-.865 0-1.377.367-1.744.93l-.852-.694c.38-.734 1.298-1.35 2.727-1.35 1.705 0 2.754.852 2.754 2.399v3.396h.851v1.127h-.878zM187.751 40.041l-1.115.603c-.235-.629-.734-1.022-1.521-1.022-1.075 0-1.704.72-1.704 1.796v1.127c0 1.062.616 1.797 1.73 1.797.84 0 1.351-.42 1.665-1.075l1.049.642c-.419.931-1.259 1.573-2.609 1.613l-.131.603.053.052a2.1 2.1 0 0 1 .564-.091c.511 0 .918.288.918.891 0 .8-.748 1.128-1.574 1.128-.787 0-1.233-.302-1.429-.551l.538-.616c.156.197.432.367.825.367.328 0 .577-.118.577-.38 0-.21-.157-.433-.93-.525l-.328-.04.183-.89c-1.639-.25-2.596-1.561-2.596-3.488 0-2.164 1.206-3.54 3.199-3.54 1.39 0 2.216.655 2.636 1.6zM193.865 43.346v-.984h-1.272c-1.049 0-1.548.328-1.548.931v.262c0 .603.473.918 1.233.918.918 0 1.587-.459 1.587-1.127zm-1.337-6.202c-.394-.197-.696-.302-.971-.302-.288 0-.498.118-.761.341l-.537-.682c.262-.406.708-.747 1.35-.747.433 0 .734.157 1.023.301.394.197.695.302.97.302.288 0 .498-.118.761-.341l.538.682c-.263.406-.708.747-1.351.747-.433 0-.734-.157-1.022-.301zm2.74 8.22c-.813 0-1.22-.458-1.299-1.14h-.065c-.262.813-.97 1.298-2.032 1.298-1.377 0-2.268-.774-2.268-2.046 0-1.31.956-2.019 2.963-2.019h1.298v-.524c0-.905-.486-1.377-1.456-1.377-.865 0-1.376.367-1.744.931l-.852-.695c.381-.734 1.298-1.35 2.727-1.35 1.705 0 2.754.852 2.754 2.399v3.396h.852v1.128h-.878zM202.338 42.493V41.47c0-1.258-.682-1.9-1.718-1.9-1.035 0-1.717.642-1.717 1.9v1.023c0 1.259.682 1.901 1.717 1.901 1.036 0 1.718-.642 1.718-1.9zm-4.93-.511c0-2.164 1.219-3.54 3.212-3.54s3.212 1.376 3.212 3.54c0 2.163-1.219 3.54-3.212 3.54s-3.212-1.377-3.212-3.54zM147.288 58.273V57.17c0-1.101-.617-1.822-1.692-1.822-.826 0-1.534.42-1.534 1.245v2.256c0 .826.708 1.245 1.534 1.245 1.075 0 1.692-.72 1.692-1.822zm-4.655-3.934h1.429v1.154h.079c.393-.813 1.048-1.311 2.045-1.311 1.586 0 2.609 1.22 2.609 3.54 0 2.32-1.023 3.54-2.609 3.54-.997 0-1.652-.498-2.045-1.31h-.079v3.775h-1.429V54.34zM154.513 59.086v-.984h-1.272c-1.049 0-1.547.328-1.547.931v.262c0 .603.472.918 1.232.918.918 0 1.587-.459 1.587-1.127zm1.403 2.019c-.813 0-1.219-.46-1.298-1.141h-.066c-.262.813-.97 1.298-2.032 1.298-1.377 0-2.268-.773-2.268-2.046 0-1.31.957-2.019 2.963-2.019h1.298v-.524c0-.905-.485-1.377-1.456-1.377-.865 0-1.376.367-1.743.931l-.852-.695c.38-.734 1.297-1.35 2.727-1.35 1.704 0 2.753.852 2.753 2.4v3.395h.852v1.128h-.878zM158.332 59.952h1.796v-4.459h-1.796V54.34h3.226v1.796h.078c.262-.944.852-1.796 2.229-1.796h.813v1.363h-1.338c-1.166 0-1.782.774-1.782 1.718v2.53h2.451v1.154h-5.677v-1.153zM170.253 59.086v-.984h-1.272c-1.048 0-1.547.328-1.547.931v.262c0 .603.472.918 1.232.918.918 0 1.587-.459 1.587-1.127zm1.403 2.019c-.812 0-1.219-.46-1.298-1.141h-.066c-.262.813-.97 1.298-2.031 1.298-1.377 0-2.269-.773-2.269-2.046 0-1.31.957-2.019 2.963-2.019h1.298v-.524c0-.905-.485-1.377-1.455-1.377-.865 0-1.377.367-1.744.931l-.852-.695c.38-.734 1.298-1.35 2.727-1.35 1.705 0 2.754.852 2.754 2.4v3.395h.851v1.128h-.878zM185.994 59.086v-.984h-1.272c-1.049 0-1.548.328-1.548.931v.262c0 .603.472.918 1.233.918.918 0 1.587-.459 1.587-1.127zm1.403 2.019c-.813 0-1.22-.46-1.299-1.141h-.065c-.262.813-.971 1.298-2.032 1.298-1.377 0-2.269-.773-2.269-2.046 0-1.31.957-2.019 2.964-2.019h1.298v-.524c0-.905-.486-1.377-1.456-1.377-.865 0-1.377.367-1.744.931l-.852-.695c.38-.734 1.298-1.35 2.727-1.35 1.705 0 2.754.852 2.754 2.4v3.395h.852v1.128h-.878zM197.447 56.529c0-3.03 1.115-4.734 3.436-4.734 1.77 0 2.583 1.023 3.002 2.268l-1.324.446c-.276-.84-.656-1.494-1.692-1.494-1.298 0-1.861 1.062-1.861 2.74v1.547c0 1.678.563 2.74 1.861 2.74 1.036 0 1.416-.655 1.692-1.495l1.324.446c-.419 1.246-1.232 2.269-3.002 2.269-2.321 0-3.436-1.705-3.436-4.733zM207.925 52.333v-.275c0-.433.262-.774.97-.774.721 0 .984.341.984.774v.275c0 .433-.263.774-.971.774-.721 0-.983-.341-.983-.774zm-2.046 7.618h2.308v-4.458h-2.308v-1.154h3.737v5.612h2.163v1.154h-5.9V59.95zM214.655 57.066v.092h3.396v-.131c0-1.062-.655-1.757-1.652-1.757-1.023 0-1.744.747-1.744 1.796zm2.439-6.11 1.573 1.967-.76.55-1.547-1.52-1.561 1.52-.721-.55 1.574-1.967h1.442zm-3.881 6.779c0-2.177 1.258-3.553 3.186-3.553 1.901 0 3.107 1.363 3.107 3.356v.538h-4.851v.223c0 1.062.709 1.81 1.875 1.81.866 0 1.495-.407 1.875-1.037l.892.787c-.459.787-1.403 1.403-2.793 1.403-2.072 0-3.291-1.377-3.291-3.527zM221.396 61.105v-6.766h1.43v1.154h.065c.288-.708.84-1.311 1.954-1.311 1.363 0 2.281.93 2.281 2.57v4.353h-1.429V56.96c0-1.075-.485-1.612-1.403-1.612-.734 0-1.468.38-1.468 1.167v4.589h-1.43zM229.137 57.722c0-2.163 1.206-3.54 3.199-3.54 1.39 0 2.216.655 2.636 1.6l-1.115.603c-.236-.63-.735-1.023-1.521-1.023-1.075 0-1.705.721-1.705 1.796v1.128c0 1.062.616 1.796 1.731 1.796.839 0 1.351-.42 1.665-1.075l1.049.643c-.432.944-1.311 1.612-2.727 1.612-2.019 0-3.212-1.377-3.212-3.54zM239.405 52.333v-.275c0-.433.263-.774.971-.774.721 0 .983.341.983.774v.275c0 .433-.262.774-.97.774-.721 0-.984-.341-.984-.774zm-2.046 7.618h2.309v-4.458h-2.309v-1.154h3.738v5.612h2.163v1.154h-5.901V59.95zM248.955 59.086v-.984h-1.273c-1.048 0-1.547.328-1.547.931v.262c0 .603.472.918 1.233.918.917 0 1.587-.459 1.587-1.127zm1.402 2.019c-.812 0-1.219-.46-1.298-1.141h-.065c-.263.813-.971 1.298-2.032 1.298-1.377 0-2.269-.773-2.269-2.046 0-1.31.957-2.019 2.963-2.019h1.299v-.524c0-.905-.486-1.377-1.456-1.377-.865 0-1.377.367-1.744.931l-.852-.695c.38-.734 1.298-1.35 2.727-1.35 1.705 0 2.754.852 2.754 2.4v3.395h.851v1.128h-.878zM143.825 72.807v.091h3.396v-.13c0-1.063-.656-1.758-1.653-1.758-1.022 0-1.743.748-1.743 1.797zm-1.442.668c0-2.176 1.258-3.553 3.185-3.553 1.902 0 3.108 1.364 3.108 3.356v.538h-4.851v.223c0 1.062.708 1.81 1.875 1.81.865 0 1.494-.407 1.875-1.036l.892.787c-.459.786-1.404 1.402-2.793 1.402-2.072 0-3.291-1.376-3.291-3.527zM162.384 74.826v-.984h-1.272c-1.048 0-1.547.328-1.547.931v.263c0 .603.472.918 1.232.918.918 0 1.587-.46 1.587-1.128zm1.403 2.019c-.813 0-1.219-.46-1.298-1.141h-.066c-.262.813-.97 1.298-2.032 1.298-1.377 0-2.268-.773-2.268-2.045 0-1.311.957-2.02 2.963-2.02h1.298v-.524c0-.905-.485-1.377-1.455-1.377-.865 0-1.377.368-1.744.931l-.852-.694c.38-.735 1.297-1.351 2.727-1.351 1.704 0 2.754.852 2.754 2.4v3.395h.851v1.128h-.878zM177.743 68.925v7.92h-1.469v-7.92h-2.872v-1.232h7.212v1.233h-2.871zM183.174 72.807v.091h3.397v-.13c0-1.063-.656-1.758-1.653-1.758-1.022 0-1.744.748-1.744 1.797zm-1.442.668c0-2.176 1.259-3.553 3.186-3.553 1.902 0 3.108 1.364 3.108 3.356v.538h-4.852v.223c0 1.062.708 1.81 1.875 1.81.866 0 1.495-.407 1.875-1.036l.892.787c-.459.786-1.403 1.402-2.792 1.402-2.072 0-3.292-1.376-3.292-3.527zM189.785 73.462c0-2.163 1.206-3.54 3.199-3.54 1.39 0 2.216.656 2.636 1.6l-1.115.603c-.235-.63-.734-1.023-1.521-1.023-1.075 0-1.704.721-1.704 1.796v1.128c0 1.062.616 1.797 1.731 1.797.839 0 1.35-.42 1.665-1.076l1.049.643c-.433.944-1.312 1.612-2.728 1.612-2.019 0-3.212-1.376-3.212-3.54zM197.787 76.845v-6.766h1.429v1.154h.066c.288-.708.839-1.311 1.954-1.311 1.363 0 2.281.931 2.281 2.57v4.353h-1.429v-4.143c0-1.075-.485-1.613-1.403-1.613-.735 0-1.469.38-1.469 1.167v4.589h-1.429zM210.207 73.974V72.95c0-1.259-.682-1.901-1.718-1.901-1.035 0-1.717.642-1.717 1.9v1.023c0 1.26.682 1.902 1.717 1.902 1.036 0 1.718-.643 1.718-1.901zm-4.93-.512c0-2.163 1.22-3.54 3.212-3.54 1.993 0 3.213 1.377 3.213 3.54 0 2.164-1.22 3.54-3.213 3.54-1.992 0-3.212-1.376-3.212-3.54zM213.408 75.691h2.242v-7.395h-2.242v-1.153h3.671v8.548h2.242v1.154h-5.913v-1.154zM225.947 73.974V72.95c0-1.259-.681-1.901-1.717-1.901s-1.718.642-1.718 1.9v1.023c0 1.26.682 1.902 1.718 1.902s1.717-.643 1.717-1.901zm-4.929-.512c0-2.163 1.219-3.54 3.212-3.54s3.212 1.377 3.212 3.54c0 2.164-1.219 3.54-3.212 3.54s-3.212-1.376-3.212-3.54zM233.398 72.466v-.354c0-.722-.433-1.207-1.351-1.207-.918 0-1.35.485-1.35 1.207v.354c0 .72.432 1.206 1.35 1.206.918 0 1.351-.486 1.351-1.206zm-.367 4.458h-2.347c-.328.157-.499.406-.499.76 0 .511.394.93 1.39.93h1.062c1.075 0 1.665-.327 1.665-.943 0-.459-.314-.747-1.271-.747zm-.945 2.7c-2.334 0-3.147-.616-3.147-1.626 0-.734.433-1.114 1.181-1.31v-.132c-.459-.17-.748-.472-.748-.983 0-.669.511-.97 1.219-1.14v-.066c-.812-.38-1.297-1.102-1.297-2.072 0-1.442 1.088-2.374 2.753-2.374.472 0 .905.08 1.272.224v-.224c0-.524.302-.917.904-.917h1.233v1.127h-1.574v.315c.591.407.918 1.036.918 1.85 0 1.441-1.088 2.36-2.753 2.36-.301 0-.577-.027-.839-.08-.315.08-.708.289-.708.656 0 .42.459.472 1.049.472h1.521c1.822 0 2.569.76 2.569 1.875 0 1.39-1.166 2.045-3.553 2.045zM239.405 68.073v-.276c0-.433.263-.774.971-.774.721 0 .983.341.983.774v.276c0 .432-.262.773-.97.773-.721 0-.984-.341-.984-.773zm-2.046 7.617h2.309v-4.458h-2.309V70.08h3.738v5.611h2.163v1.154h-5.901V75.69zM248.955 74.826v-.984h-1.273c-1.048 0-1.547.328-1.547.931v.263c0 .603.472.918 1.233.918.917 0 1.587-.46 1.587-1.128zm1.402 2.019c-.812 0-1.219-.46-1.298-1.141h-.065c-.263.813-.971 1.298-2.032 1.298-1.377 0-2.269-.773-2.269-2.045 0-1.311.957-2.02 2.963-2.02h1.299v-.524c0-.905-.486-1.377-1.456-1.377-.865 0-1.377.368-1.744.931l-.852-.694c.38-.735 1.298-1.351 2.727-1.351 1.705 0 2.754.852 2.754 2.4v3.395h.851v1.128h-.878zM21.08 32.342h16.073v6.913H21.08v30.803h16.073v6.913H0v-6.913h13.246V39.255H0v-6.913h10.392a2.854 2.854 0 0 0 2.854-2.854V25.14a6.66 6.66 0 0 1 1.95-4.71l7.427-7.425c1.25-1.25 2.943-1.913 4.71-1.913h9.82v6.875H21.08v14.375zM59.063 11.092H75.85v6.913H52.692v33.709H75.85v6.912H59.063a6.66 6.66 0 0 1-4.71-1.95l-7.545-7.546a6.66 6.66 0 0 1-1.95-4.71V25.298a6.66 6.66 0 0 1 1.95-4.71l7.546-7.546a6.66 6.66 0 0 1 4.71-1.95zM96.147 45.063V18.005H83.123v-6.913h10.17a2.854 2.854 0 0 0 2.854-2.855V.031h7.834v11.06h16.891v6.914h-16.891v33.708h16.891v6.913h-12.026a6.66 6.66 0 0 1-5.012-2.274l-6.04-6.903a6.66 6.66 0 0 1-1.647-4.386zM44.857 76.97h76.016V70.06H44.857v6.912z" fill="#fff"/></svg>